<svg id="Ebene_1" data-name="Ebene 1" xmlns="http://www.w3.org/2000/svg" viewBox="0 0 90.66 27.48"><title>Docsby_Logo</title><path d="M22,21.38l-4.86-4.86-1.39,1.39,3.33,3.33a8.89,8.89,0,0,1-8.54.49v-16A8.84,8.84,0,0,1,20.59,7.49a9.07,9.07,0,0,1,2.5,7.78l1.95.14A10.81,10.81,0,0,0,8.56,4.64V23A11,11,0,0,0,22,21.38Z" transform="translate(-0.59 0)" fill="#fff"/><path d="M6.62,6.17a10.5,10.5,0,0,0-3.06,7.51,10.71,10.71,0,0,0,3.06,7.5Z" transform="translate(-0.59 0)" fill="#fff"/><path d="M24.06,4a13.76,13.76,0,1,0,0,19.46A13.79,13.79,0,0,0,24.06,4ZM3.49,13.74a10.66,10.66,0,0,1,3.06-7.5l.07,15.08A11.25,11.25,0,0,1,3.49,13.74Zm5.08,9.11V4.64A10.81,10.81,0,0,1,25,15.41l-1.95-.14a9.07,9.07,0,0,0-2.5-7.78A8.94,8.94,0,0,0,10.51,5.75v16a8.89,8.89,0,0,0,8.54-.49l-3.33-3.33,1.39-1.39L22,21.38A10.83,10.83,0,0,1,8.57,22.85Z" transform="translate(-0.59 0)" fill="#349499"/><path d="M32,22.3V7.49h3.11a11.13,11.13,0,0,1,3.53.44A6.44,6.44,0,0,1,41.2,9.4a7.06,7.06,0,0,1,2.29,5.49,7.22,7.22,0,0,1-4.9,7,11.33,11.33,0,0,1-3.49.41Zm2.24-2.1h1a8.08,8.08,0,0,0,2.5-.32,5,5,0,0,0,1.81-1.06,5.06,5.06,0,0,0,1.65-3.93,5.17,5.17,0,0,0-1.63-4,6.21,6.21,0,0,0-4.33-1.35h-1Z" transform="translate(-0.59 0)"/><path d="M44.07,17.56a4.65,4.65,0,0,1,1.45-3.44,5.12,5.12,0,0,1,7.09,0,4.74,4.74,0,0,1,1.44,3.51,4.76,4.76,0,0,1-1.45,3.52A5,5,0,0,1,49,22.57a4.77,4.77,0,0,1-3.53-1.44A4.86,4.86,0,0,1,44.07,17.56Zm2.21,0A3.17,3.17,0,0,0,47,19.82a2.92,2.92,0,0,0,4,0,3.06,3.06,0,0,0,.76-2.18,3,3,0,0,0-.76-2.18,2.86,2.86,0,0,0-4,0A3,3,0,0,0,46.28,17.6Z" transform="translate(-0.59 0)"/><path d="M62.23,13.36v2.87A5.2,5.2,0,0,0,60.9,15a2.56,2.56,0,0,0-1.35-.35,2.65,2.65,0,0,0-2,.86,3,3,0,0,0-.81,2.14,3.07,3.07,0,0,0,.78,2.16,2.61,2.61,0,0,0,2,.84,2.82,2.82,0,0,0,1.38-.33A5.55,5.55,0,0,0,62.23,19v2.85a5.72,5.72,0,0,1-2.63.68A5,5,0,0,1,56,21.17a4.69,4.69,0,0,1-1.46-3.5A4.71,4.71,0,0,1,56,14.14a5,5,0,0,1,3.63-1.44A5.44,5.44,0,0,1,62.23,13.36Z" transform="translate(-0.59 0)"/><path d="M69.24,14.55l-1.78.95c-.29-.58-.63-.86-1-.86a.72.72,0,0,0-.51.19.66.66,0,0,0-.21.51c0,.35.42.71,1.25,1.06a7.6,7.6,0,0,1,2.31,1.36,2.33,2.33,0,0,1,.6,1.68,3,3,0,0,1-1,2.27,3.43,3.43,0,0,1-2.34.86,3.39,3.39,0,0,1-3.33-2.29L65,19.42a4,4,0,0,0,.58.86,1.37,1.37,0,0,0,.94.36c.73,0,1.1-.33,1.1-1,0-.38-.28-.74-.85-1.07l-.65-.32-.66-.31A4.26,4.26,0,0,1,64.15,17a2.32,2.32,0,0,1-.48-1.51,2.66,2.66,0,0,1,.83-2,2.93,2.93,0,0,1,2.07-.79A2.82,2.82,0,0,1,69.24,14.55Z" transform="translate(-0.59 0)"/><path d="M73.35,6.09v8a4,4,0,0,1,2.94-1.34,4,4,0,0,1,3.15,1.41A5,5,0,0,1,80.7,17.6a5.16,5.16,0,0,1-1.27,3.57,4.11,4.11,0,0,1-3.18,1.4,4,4,0,0,1-2.9-1.25v1H71.19V6.09ZM78.49,17.7a3.2,3.2,0,0,0-.73-2.19,2.33,2.33,0,0,0-1.85-.87,2.47,2.47,0,0,0-1.94.84,3.12,3.12,0,0,0-.74,2.15A3.14,3.14,0,0,0,74,19.81a2.44,2.44,0,0,0,1.92.83,2.39,2.39,0,0,0,1.86-.83A3.08,3.08,0,0,0,78.49,17.7Z" transform="translate(-0.59 0)"/><path d="M85,20.57,80.78,13h2.5l2.86,5.37L88.81,13h2.44L83.8,27.39H81.34Z" transform="translate(-0.59 0)"/></svg>